<svg xmlns="http://www.w3.org/2000/svg" viewBox="390 93 295 55">
  <g fill="none" stroke="none">
    <path fill="#3D3D3D" d="M555.501,143.491h-25.134c-1.805,0-3.269-1.464-3.269-3.27V128.07c0-1.805,1.464-3.27,3.269-3.27h25.134c1.806,0,3.269,1.464,3.269,3.27v12.152C558.77,142.028,557.307,143.491,555.501,143.491"/>
    <path fill="#3D3D3D" d="M478.319,130.743h-2.408c-0.927,0-1.679,0.752-1.679,1.68v5.019c0,0.928,0.752,1.68,1.679,1.68h2.408c0.928,0,1.68-0.752,1.68-1.68v-5.019C479.999,131.495,479.247,130.743,478.319,130.743"/>
    <path fill="#3D3D3D" d="M524.041,129.936v-5.074c0-0.134,0.015-0.266,0.04-0.393h-42.549v5.533l42.881,2.425C524.182,132.109,524.041,130.361,524.041,129.936"/>
    <path fill="#FFFFFF" d="M474.819,137.647v-2.465c0-0.244,0.198-0.443,0.443-0.443h0.72c0.244,0,0.444,0.198,0.444,0.443v2.465c0,0.244-0.199,0.443-0.444,0.443h-0.72C475.017,138.09,474.819,137.891,474.819,137.647"/>
    <path fill="#3D3D3D" d="M438.311,96.503h-4.172c-1.184,0-2.143,0.959-2.143,2.144v7.496h8.459v-7.496C440.455,97.463,439.495,96.503,438.311,96.503"/>
    <path fill="#FFFFFF" d="M435.087,97.862h-1.304c-0.237,0-0.429,0.329-0.429,0.733v6.189h1.304v-6.189C434.659,98.191,434.851,97.862,435.087,97.862"/>
    <path fill="#3D3D3D" d="M431.996,103.719v-4.8H393.22c-0.345,0-0.398,0.499-0.059,0.572C406.424,102.355,419.386,103.839,431.996,103.719"/>
    <path fill="#3D3D3D" d="M440.455,103.719v-4.8h38.775c0.346,0,0.398,0.499,0.06,0.572C466.027,102.355,453.065,103.839,440.455,103.719"/>
    <path fill="#FFFFFF" d="M432.442,133.04v-4.026c0-0.413,0.334-0.747,0.747-0.747h1.151c0.412,0,0.748,0.334,0.748,0.748v4.025c0,0.413-0.335,0.747-0.748,0.747h-1.151C432.776,133.788,432.442,133.453,432.442,133.04"/>
    <path fill="#3D3D3D" d="M607.549,130.743h2.408c0.927,0,1.68,0.752,1.68,1.68v5.019c0,0.928-0.753,1.68-1.68,1.68h-2.408c-0.927,0-1.68-0.752-1.68-1.68v-5.019C605.869,131.495,606.622,130.743,607.549,130.743"/>
    <path fill="#3D3D3D" d="M561.827,129.936v-5.074c0-0.134-0.015-0.266-0.04-0.393h42.549v5.533l-42.881,2.425C561.686,132.109,561.827,130.361,561.827,129.936"/>
    <path fill="#FFFFFF" d="M611.05,137.647v-2.465c0-0.244-0.198-0.443-0.443-0.443h-0.72c-0.244,0-0.443,0.198-0.443,0.443v2.465c0,0.244,0.198,0.443,0.443,0.443h0.721C610.852,138.09,611.05,137.891,611.05,137.647"/>
    <path fill="#3D3D3D" d="M647.557,96.503h4.172c1.184,0,2.144,0.959,2.144,2.144v7.496h-8.459v-7.496C645.413,97.463,646.373,96.503,647.557,96.503"/>
    <path fill="#FFFFFF" d="M650.781,97.862h1.304c0.237,0,0.429,0.329,0.429,0.733v6.189h-1.304v-6.189C651.209,98.191,651.017,97.862,650.781,97.862"/>
    <path fill="#3D3D3D" d="M653.873,103.719v-4.8h38.775c0.346,0,0.398,0.499,0.06,0.572C679.445,102.355,666.483,103.839,653.873,103.719"/>
    <path fill="#3D3D3D" d="M645.413,103.719v-4.8h-38.775c-0.346,0-0.398,0.499-0.059,0.572C619.841,102.355,632.803,103.839,645.413,103.719"/>
    <path fill="#FFFFFF" d="M653.427,133.04v-4.026c0-0.413-0.335-0.747-0.748-0.747h-1.151c-0.412,0-0.748,0.334-0.748,0.748v4.025c0,0.413,0.336,0.747,0.748,0.747h1.152C653.093,133.788,653.427,133.453,653.427,133.04"/>
    <path fill="#4F8BB9" d="M569.222,123.545h-52.577c-1.805,0-3.269-1.463-3.269-3.27v-8.2c0-1.805,1.464-3.269,3.269-3.269h52.577c1.806,0,3.269,1.464,3.269,3.269v8.2C572.491,122.081,571.028,123.545,569.222,123.545"/>
    <polygon fill="#FFFFFF" points="642.525,116.569 590.295,116.569 636.239,115.733"/>
    <path fill="#FFFFFF" d="M517.347,119.693v-7.035c0-0.691,0.561-1.252,1.253-1.252h-1.773c-0.691,0-1.253,0.56-1.253,1.252v7.035c0,0.691,0.561,1.252,1.253,1.252h1.773C517.908,120.945,517.347,120.384,517.347,119.693"/>
    <path fill="#FFFFFF" d="M568.752,119.693v-7.035c0-0.691-0.561-1.252-1.253-1.252h1.773c0.691,0,1.252,0.56,1.252,1.252v7.035c0,0.691-0.56,1.252-1.252,1.252h-1.773C568.191,120.945,568.752,120.384,568.752,119.693"/>
    <path fill="#3D3D3D" d="M478.21,115.459h-2.19c-0.813,0-1.472,0.659-1.472,1.472v4.379h5.134v-4.379C479.682,116.118,479.024,115.459,478.21,115.459"/>
    <path fill="#FFFFFF" d="M476.425,116.284h-0.792c-0.144,0-0.26,0.2-0.26,0.445v3.756h0.792v-3.756C476.164,116.484,476.281,116.284,476.425,116.284"/>
    <path fill="#3D3D3D" d="M474.548,119.839v-2.914h-23.537c-0.21,0-0.241,0.303-0.035,0.347C459.026,119.011,466.894,119.911,474.548,119.839"/>
    <path fill="#3D3D3D" d="M479.682,119.839v-2.914h23.536c0.21,0,0.242,0.303,0.036,0.347C495.204,119.011,487.337,119.911,479.682,119.839"/>
    <path fill="#3D3D3D" d="M479.853,121.31h-5.476c-0.927,0-1.68,0.752-1.68,1.68v9.476c0,0.928,0.753,1.68,1.68,1.68h5.476c0.928,0,1.68-0.752,1.68-1.68v-9.476C481.533,122.062,480.781,121.31,479.853,121.31"/>
    <path fill="#FFFFFF" d="M473.934,132.466v-9.477c0-0.244,0.198-0.443,0.443-0.443h1.604c0.245,0,0.444,0.199,0.444,0.443v9.476c0,0.244-0.198,0.443-0.444,0.443h-1.604C474.133,132.909,473.934,132.71,473.934,132.466"/>
    <path fill="#4F8BB9" d="M438.141,121.684h-3.83c-1.566,0-2.837,1.27-2.837,2.837v8.131c0,1.567,1.27,2.837,2.837,2.837h3.83c1.566,0,2.836-1.27,2.836-2.837v-8.131C440.976,122.954,439.707,121.684,438.141,121.684"/>
    <path fill="#4F8BB9" d="M440.668,106.143h-8.885c-1.566,0-2.836,1.27-2.836,2.837v15.475c0,1.567,1.27,2.837,2.836,2.837h8.885c1.567,0,2.836-1.27,2.836-2.837v-15.475C443.503,107.413,442.234,106.143,440.668,106.143"/>
    <path fill="#4F8BB9" d="M513.537,120.354v-8.358c0-0.222,0.023-0.439,0.066-0.648h-70.1v9.116l70.647,1.757C513.769,121.695,513.537,121.054,513.537,120.354"/>
    <polygon fill="#FFFFFF" points="443.504,116.455 443.504,114.066 510.82,114.066 510.82,115.13 447.848,115.075 510.82,116.455 510.82,118.062"/>
    <path fill="#FFFFFF" d="M430.985,124.505v-15.577c0-0.412,0.334-0.747,0.747-0.747h2.607c0.413,0,0.748,0.335,0.748,0.748v15.576c0,0.412-0.335,0.747-0.748,0.747h-2.607C431.319,125.252,430.985,124.918,430.985,124.505"/>
    <path fill="#3D3D3D" d="M607.658,115.459h2.19c0.813,0,1.472,0.659,1.472,1.472v4.379h-5.135v-4.379C606.186,116.118,606.845,115.459,607.658,115.459"/>
    <path fill="#FFFFFF" d="M609.444,116.284h0.792c0.143,0,0.26,0.2,0.26,0.445v3.756h-0.792v-3.756C609.704,116.484,609.587,116.284,609.444,116.284"/>
    <path fill="#3D3D3D" d="M611.321,119.839v-2.914h23.536c0.21,0,0.241,0.303,0.036,0.347C626.842,119.011,618.974,119.911,611.321,119.839"/>
    <path fill="#3D3D3D" d="M606.186,119.839v-2.914H582.65c-0.21,0-0.241,0.303-0.036,0.347C590.664,119.011,598.532,119.911,606.186,119.839"/>
    <path fill="#3D3D3D" d="M606.015,121.31h5.476c0.928,0,1.68,0.752,1.68,1.68v9.476c0,0.928-0.752,1.68-1.68,1.68h-5.476c-0.928,0-1.68-0.752-1.68-1.68v-9.476C604.335,122.062,605.087,121.31,606.015,121.31"/>
    <path fill="#FFFFFF" d="M611.934,132.466v-9.477c0-0.244-0.198-0.443-0.443-0.443h-1.604c-0.245,0-0.443,0.199-0.443,0.443v9.476c0,0.244,0.198,0.443,0.443,0.443h1.604C611.736,132.909,611.934,132.71,611.934,132.466"/>
    <path fill="#4F8BB9" d="M647.728,121.684h3.831c1.566,0,2.836,1.27,2.836,2.837v8.131c0,1.567-1.27,2.837-2.836,2.837h-3.831c-1.566,0-2.836-1.27-2.836-2.837v-8.131C644.892,122.954,646.162,121.684,647.728,121.684"/>
    <path fill="#4F8BB9" d="M645.201,106.143h8.885c1.567,0,2.836,1.27,2.836,2.837v15.475c0,1.567-1.269,2.837-2.836,2.837h-8.885c-1.566,0-2.836-1.27-2.836-2.837v-15.475C642.365,107.413,643.635,106.143,645.201,106.143"/>
    <path fill="#4F8BB9" d="M572.332,120.354v-8.358c0-0.222-0.023-0.439-0.067-0.648h70.1v9.116l-70.647,1.757C572.1,121.695,572.332,121.054,572.332,120.354"/>
    <polygon fill="#FFFFFF" points="642.365,116.455 642.365,114.066 575.048,114.066 575.048,115.13 638.02,115.075 575.048,116.455 575.048,118.062"/>
    <path fill="#FFFFFF" d="M654.883,124.505v-15.577c0-0.412-0.334-0.747-0.747-0.747h-2.607c-0.413,0-0.749,0.335-0.749,0.748v15.576c0,0.412,0.336,0.747,0.749,0.747h2.607C654.549,125.252,654.883,124.918,654.883,124.505"/>
    <path fill="#4F8BB9" d="M562.263,134.739h-38.656c-1.806,0-3.27-1.464-3.27-3.27v-24.83c0-1.806,1.464-3.27,3.27-3.27h38.656c1.805,0,3.269,1.464,3.269,3.27v24.83C565.531,133.275,564.068,134.739,562.263,134.739"/>
    <path fill="#FFFFFF" d="M552.642,119.843c0,5.362-4.347,9.708-9.708,9.708c-5.362,0-9.709-4.346-9.709-9.708c0-5.362,4.347-9.708,9.709-9.708C548.296,110.135,552.642,114.481,552.642,119.843"/>
    <path fill="#3D3D3D" d="M552.047,119.843c0,5.033-4.079,9.112-9.112,9.112c-5.032,0-9.113-4.08-9.113-9.112c0-5.033,4.081-9.112,9.113-9.112C547.968,110.731,552.047,114.81,552.047,119.843"/>
    <path fill="#FFFFFF" d="M550.872,119.843c0,4.384-3.554,7.939-7.938,7.939c-4.385,0-7.939-3.554-7.939-7.939c0-4.384,3.554-7.938,7.939-7.938C547.319,111.905,550.872,115.459,550.872,119.843"/>
    <path fill="#3D3D3D" d="M549.21,119.843c0,3.466-2.81,6.276-6.276,6.276c-3.466,0-6.275-2.81-6.275-6.276c0-3.466,2.809-6.276,6.275-6.276C546.4,113.567,549.21,116.377,549.21,119.843"/>
    <path fill="#FFFFFF" d="M542.622,116.549c0,1.647-1.335,2.981-2.981,2.981s-2.981-1.335-2.981-2.981c0-1.647,1.335-2.982,2.981-2.982S542.622,114.902,542.622,116.549"/>
    <path fill="#FFFFFF" d="M544.674,119.53c0,0.961-0.778,1.74-1.739,1.74c-0.961,0-1.74-0.779-1.74-1.74s0.779-1.74,1.74-1.74C543.895,117.79,544.674,118.57,544.674,119.53"/>
  </g>
</svg>
