<svg xmlns="http://www.w3.org/2000/svg" viewBox="1214.93 1176.59 2570.15 646.85" version="1.1">
  <path d="M1918.73,1391.22c-115.26-16.36-235.59-19.44-351.9-20.47c-117.64,0.55-234.98,4.19-351.9,20.47
           c116.93,16.28,234.25,19.92,351.9,20.46C1683.07,1410.67,1803.55,1407.58,1918.73,1391.22z" 
        fill="rgb(193, 153, 87)"/>
  <path d="M2682.55,1372.63c24.05-65.21,46.83-130.61,67.25-196.04c-32.55,57.62-63.72,116.95-93.95,177.07
           c-49.74-35.32-98.68-69.93-140.18-99.42c0,0-15.67-11.1-15.66-11.1c-0.8,0.82-107.85,76.22-155.9,110.28
           c-30.22-60.07-61.38-119.33-93.91-176.82c20.38,65.43,43.12,130.79,67.14,195.95
           c-51.12,36.03-101.53,73.07-152.28,109.62c-216.93,3.76-433.87,9.95-650.45,23.72
           c219.22,13.93,438.81,20.13,658.4,23.88l7.28,0.08c51.91-35.58,104.22-70.59,155.93-106.44
           c51.35,135.07,108.14,268.95,163.81,400.03c55.6-131.07,112.37-265.06,163.75-400.19
           c53.29,36.67,105.8,72.58,149.55,102.15l6.43,4.39c0,0,7.25-0.07,7.25-0.07
           c219.58-3.79,439.17-9.96,658.4-23.82c-216.57-13.69-433.49-19.85-650.41-23.66
           C2790.24,1449.48,2736.66,1411.12,2682.55,1372.63z
           M2500.01,1685.89c-42.09-94.71-85.85-190.41-132-284.47l131.95-91.61
           c39.93,27.83,85.7,59.56,132.12,91.59C2585.94,1495.47,2542.16,1591.14,2500.01,1685.89z" 
        fill="rgb(193, 153, 87)"/>
  <path d="M3785.08,1391.22c-116.93-16.28-234.26-19.92-351.91-20.46
           c-116.25,1.02-236.72,4.11-351.9,20.46c115.27,16.36,235.59,19.44,351.9,20.47
           C3550.82,1411.14,3668.16,1407.5,3785.08,1391.22z" 
        fill="rgb(193, 153, 87)"/>
</svg>
